# xmcd CD database file
#
# Track frame offsets:
#	150
#	16212
#	29242
#	53585
#	67680
#	83065
#	108120
#	119887
#	143935
#	167755
#	194680
#	209365
#	234065
#	246062
#	273717
#
# Disc length: 3968 seconds
#
# Revision: 0
# Processed by: cddbd v1.5.2PL0 Copyright (c) Steve Scherf et al.
# Submitted via: Feurio! 1.64 - http://www.feurio.com
#
DISCID=d20f7e0f
DTITLE=Free - 2002 # At Last ( dig, Remastered )
DYEAR=2002
DGENRE=BluesRock
TTITLE0=Catch a Train
TTITLE1=Soldier Boy
TTITLE2=Magic Ship
TTITLE3=Sail on
TTITLE4=Travellin' Man
TTITLE5=Little Bit Of Love
TTITLE6=Guardian Of The Universe
TTITLE7=Child
TTITLE8=Goodbye
TTITLE9=Burnin' (Molton Gold) (Alternative Take)
TTITLE10=Honky Tonk Woman
TTITLE11=Magic Ship (Alternative Mix)
TTITLE12=Little Bit of Love (Alternative Mix)
TTITLE13=Guardian of the Universe (Paul Rodgers Solo Version)
TTITLE14=Child (Early Mix)
EXTD=
EXTT0=
EXTT1=
EXTT2=
EXTT3=
EXTT4=
EXTT5=
EXTT6=
EXTT7=
EXTT8=
EXTT9=
EXTT10=
EXTT11=
EXTT12=
EXTT13=
EXTT14=
PLAYORDER=
